/* XPM */
static char *acorn[]={
"32 32 505 2",
"Qt c None",
".R c #060000",
".Q c #170805",
".U c #190d00",
"c3 c #1f0f10",
"do c #21120f",
"cg c #220a06",
".g c #221310",
"dp c #251f11",
".T c #262827",
".P c #27120d",
"f1 c #271b0d",
"a2 c #291700",
".A c #2b140e",
"cG c #2b1917",
"ch c #2b2414",
"c0 c #2d1200",
"f0 c #2d1f12",
"fV c #2e2003",
"ao c #2f1713",
"aD c #2f1e00",
".p c #2f221c",
"cb c #301500",
"b. c #332d17",
"fi c #342c17",
"bo c #362000",
"fw c #37290f",
"#y c #381400",
"#J c #381c18",
"fZ c #382819",
"ey c #383019",
"#f c #391d00",
"bN c #392500",
"fW c #392c19",
"e2 c #3a321b",
"fX c #3c2d1a",
".o c #3d2c24",
".a c #3e2d26",
"fY c #3e2e1e",
"dn c #3f2c1e",
".q c #3f3128",
"e3 c #403926",
"bw c #413a28",
"bT c #422925",
".b c #423127",
"#U c #432503",
".O c #442721",
".C c #443629",
".8 c #452621",
"#q c #452623",
"cF c #452824",
"bu c #452926",
".n c #452e26",
"af c #452f08",
".W c #45351b",
"fx c #453a24",
"cC c #46230d",
"#4 c #46332f",
"eh c #463a24",
"eN c #464028",
"bO c #472a0c",
"c4 c #473e2f",
"bV c #47402d",
"c1 c #492d1f",
"c2 c #49312d",
"fU c #49391f",
"fK c #493d23",
"#K c #494134",
"a8 c #4a2e2b",
"bv c #4a3c39",
"#. c #4a4542",
".c c #4b3a32",
".X c #4c391b",
"a9 c #4c3e3b",
"fL c #4c4028",
".B c #4c4439",
"aL c #4d312e",
".S c #4d4c4a",
"bn c #4e4115",
"#5 c #4f493b",
"#T c #503210",
"## c #515350",
"#e c #523c15",
".h c #523f3b",
"ae c #534016",
"aE c #543e19",
"cc c #552f1a",
".d c #55473e",
"#z c #562c13",
"ag c #573d1a",
"fJ c #574725",
".# c #574748",
"ap c #575141",
".V c #584932",
"bt c #59322d",
"cD c #593424",
"cf c #5a352f",
".f c #5a4c4b",
"a1 c #5a4f21",
".9 c #5b433f",
"f2 c #5b4f41",
".E c #5c4a36",
"aN c #5c5640",
"eO c #5c5946",
"a7 c #5d3631",
".z c #5d403a",
".F c #5d422f",
"dI c #5d4833",
"bU c #5d524e",
"#a c #5d5443",
"#V c #5e3d1e",
"fh c #5f5137",
"ah c #604122",
"dm c #604830",
"d2 c #605040",
"fM c #605237",
"aM c #60524f",
"#r c #605748",
"a4 c #613d23",
"#3 c #61403b",
".D c #61523f",
"#k c #622e20",
".1 c #622e21",
"cE c #623d35",
".Y c #62472c",
"cB c #624827",
".e c #62544b",
"aC c #625528",
"bP c #633a26",
"bp c #634427",
"#B c #643720",
"a3 c #644a29",
"#E c #653123",
"#g c #653b23",
"#I c #653e39",
".m c #654a43",
"#G c #66342b",
"an c #66403d",
".G c #673d31",
"aF c #67482b",
".k c #674a44",
"bS c #68433d",
"br c #693b2e",
"ce c #693c36",
"#x c #694e23",
"#Y c #6a3b27",
"aJ c #6a3b35",
"cd c #6a3f2f",
"bq c #6a412d",
"a5 c #6b3b2f",
"am c #6b3b37",
"#o c #6b3c36",
"bR c #6b3e38",
"aG c #6b422c",
"#W c #6b482c",
"dJ c #6b594f",
"dK c #6b6859",
"#Z c #6d3c2d",
"fv c #6d5d3c",
"d3 c #6d6b5c",
"ak c #6e3a2d",
"#i c #6e3d2c",
"aH c #6e3f2f",
"#p c #6e4541",
"#X c #6e462d",
".I c #6f3d34",
".J c #6f3f35",
"aK c #6f4843",
"#l c #703b2d",
"al c #703e35",
"#1 c #703e37",
"#D c #703f2e",
"#A c #70462e",
".i c #705752",
".3 c #713d32",
".Z c #714333",
"aj c #714431",
"bQ c #714636",
"#0 c #723e33",
"#2 c #724741",
"ai c #724a31",
"cH c #726751",
"aI c #734136",
"#n c #734138",
"#h c #73432f",
".H c #75453b",
".j c #755850",
".l c #755a53",
"bs c #764741",
"a6 c #774842",
"fT c #77654d",
"e1 c #776c50",
"ex c #776e4d",
".0 c #784437",
"#j c #784534",
"#b c #796d55",
"#m c #7a443a",
"d1 c #7a694d",
".7 c #7b544d",
"ei c #7d7b6c",
".2 c #7e4a3d",
"#F c #7f4b3e",
"fy c #7f7154",
".4 c #804c41",
"#H c #80514b",
"fg c #817052",
"fj c #82785d",
"fI c #83714b",
"#d c #83714d",
"#C c #845541",
".N c #84615b",
"eM c #847b5c",
"fu c #857248",
".r c #87766c",
"fO c #887557",
"e0 c #8a7b5a",
"fR c #8c7860",
".s c #8d776c",
"fH c #907c57",
"ez c #908f7d",
"ca c #917d58",
"aq c #918b75",
".u c #936c65",
"fG c #937f5c",
"ad c #938056",
"fS c #94826a",
"cZ c #957c54",
"#S c #967a53",
".K c #97665f",
".y c #97766d",
"fN c #988769",
".t c #9a786f",
"eL c #9a8d6a",
".x c #9b766e",
"#s c #9d917b",
".5 c #9e6d66",
"fP c #9e8a6f",
"bx c #9f987c",
"fQ c #a08c73",
"fA c #a18d68",
"d0 c #a18f67",
".M c #a37a74",
"c. c #a39566",
"aA c #a39669",
"bK c #a49665",
"bM c #a5986c",
"bk c #a69867",
"dl c #a79067",
"eg c #a79a7a",
"aX c #a89865",
"aB c #a89b6e",
"bm c #a89d6f",
"ef c #a99c72",
"#6 c #a99e8c",
"bL c #a99f6e",
".6 c #aa7d77",
".L c #aa7e75",
".w c #aa837c",
"cw c #aa935f",
"fz c #aa9a78",
"a0 c #aaa06f",
"cA c #ab956c",
"ee c #ab9f6f",
"dW c #ac9d64",
"#v c #ad9a6f",
"#N c #ad9f7c",
"ed c #ada06c",
"#Q c #ae9964",
"dF c #ae9b63",
"fd c #af9967",
"c# c #afa075",
"df c #b0a669",
"bh c #b19b69",
"dZ c #b1a170",
"aZ c #b1a776",
"c5 c #b1a78e",
"bI c #b29a6a",
"fF c #b29b7b",
"dG c #b29d6e",
"cq c #b2a070",
"eb c #b2a26e",
"#w c #b39d6e",
"ff c #b3a17b",
"ck c #b3a87b",
"bl c #b3a978",
".v c #b48b85",
"b3 c #b49f70",
"dH c #b4a07d",
"cY c #b4a166",
"d6 c #b4ad81",
"ac c #b5a073",
"cz c #b5a574",
"#c c #b5a687",
"dD c #b5a768",
"aQ c #b5a780",
"bZ c #b5aa74",
"fs c #b69f73",
"aw c #b6a26d",
"aT c #b6a270",
"di c #b6a462",
"cp c #b6a571",
"dh c #b6a764",
"dV c #b6a76e",
"bd c #b6a877",
"#t c #b6a88b",
"el c #b6af83",
"aa c #b7a06a",
"cX c #b7a565",
"cT c #b7a672",
"eu c #b7a97a",
"dB c #b7ab6f",
"ew c #b7ab83",
"#L c #b7ac98",
"dN c #b7ae83",
"bz c #b7af81",
"fD c #b8a07e",
"e7 c #b8a678",
"ea c #b8a874",
"aR c #b8aa7d",
"bA c #b8ac7a",
"ds c #b8ac82",
"dk c #b9a26e",
"aU c #b9a570",
"b9 c #b9a777",
"et c #b9a976",
"dd c #b9ad7b",
"fC c #baa381",
"b4 c #baa578",
"av c #baa878",
"cx c #baa973",
"cW c #baaa6c",
"be c #baaa77",
"az c #baaa79",
"dY c #baab74",
"#9 c #baab82",
"at c #baab84",
"eR c #baad83",
"cl c #baae7a",
"bc c #baae7e",
"eC c #bab186",
"fE c #bba283",
"ct c #bba478",
"bg c #bba573",
"eZ c #bba983",
"cK c #bbaa7c",
"cy c #bbab77",
"co c #bbac75",
"en c #bbad7c",
"de c #bbb078",
"#R c #bca573",
"bF c #bca876",
"cU c #bcab73",
"dX c #bcad74",
"d8 c #bcae7d",
"dz c #bcae7f",
"b0 c #bcaf78",
"ev c #bcaf82",
"dT c #bcb080",
"bb c #bcb086",
"fr c #bda67c",
"bi c #bda977",
"dc c #bdaf80",
"e5 c #bdb08d",
"as c #bdb08e",
"aY c #bdb181",
"eB c #bdb793",
"fo c #bea57c",
"fB c #bea883",
"ab c #bea974",
"ft c #bea97c",
"cO c #beaa78",
"cP c #beac7c",
"da c #beac7e",
"dE c #beae70",
"bC c #beae7a",
"aS c #beae7d",
"cn c #beaf78",
"dC c #beb073",
"dS c #beb081",
"dy c #beb083",
"e# c #beb17d",
"e. c #beb280",
"d# c #bfaa7b",
"aW c #bfab76",
"#O c #bfac82",
"eS c #bfad7b",
"dw c #bfad7f",
"dR c #bfae80",
"ec c #bfaf7b",
"d9 c #bfaf7e",
"b2 c #bfb079",
"eq c #bfb180",
"db c #bfb182",
"er c #bfb27e",
"dA c #bfb47c",
"b6 c #c09f72",
"e9 c #c0a87a",
"bG c #c0aa7b",
"fm c #c0ab80",
"cN c #c0ac79",
"eY c #c0ad82",
"eo c #c0ae7e",
"ep c #c0ae80",
"cS c #c0af81",
"dx c #c0af83",
"bD c #c0b07c",
"du c #c0b07d",
"fk c #c0b190",
"dP c #c0b281",
"bB c #c0b37f",
"dg c #c0b575",
"e4 c #c0b99c",
"fp c #c1a880",
"a# c #c1ad7a",
"eG c #c1af7d",
"c8 c #c1af7f",
"cr c #c1af81",
"#u c #c1af8b",
"eH c #c1b07c",
"eI c #c1b17d",
"dQ c #c1b180",
"b1 c #c1b27b",
"dt c #c1b384",
"dU c #c1b47f",
"dO c #c1b487",
"eQ c #c1b793",
"ek c #c1bd98",
"fa c #c2aa7c",
"ax c #c2ab75",
"c9 c #c2ae7b",
"#P c #c2ae7c",
"cQ c #c2b082",
"cR c #c2b183",
"cV c #c2b276",
"#8 c #c2b392",
"#7 c #c2b69c",
"d7 c #c2b789",
"eF c #c3ae7f",
"cM c #c3af7c",
"eD c #c3af7d",
"dv c #c3b181",
"au c #c3b286",
"eK c #c3b48b",
"em c #c3b787",
"aP c #c3b996",
"fb c #c4ac7e",
"eX c #c4ae7f",
"aV c #c4af7a",
"eE c #c4af80",
"d. c #c4b07e",
"es c #c4b481",
"ci c #c4baa1",
"cv c #c5a775",
"eT c #c5af7e",
"eW c #c5af80",
"e8 c #c5b081",
"dj c #c5b174",
"bf c #c5b17e",
"a. c #c5b385",
"bj c #c5b584",
"c7 c #c5b68b",
"cm c #c5b881",
"bY c #c5bd8c",
"eA c #c5c1a6",
"b7 c #c6a677",
"eU c #c6b07f",
"fe c #c6b182",
"fl c #c6b389",
"fq c #c7ae86",
"eV c #c7af81",
"e6 c #c7b88f",
"f# c #c8ad82",
"ay c #c8b37e",
"cs c #c8b58a",
"cL c #c8b783",
"fn c #c9b087",
"b8 c #c9b181",
"fc c #c9b382",
"bE c #c9b582",
"eJ c #c9b88c",
"ba c #c9c19c",
"bH c #caaf80",
"dq c #cac2ab",
"dL c #cac6ad",
"d5 c #cbc5a3",
"bX c #ccc59b",
"eP c #ccc7aa",
"b5 c #cdb589",
"f. c #ceb688",
"#M c #cfc1a6",
"bJ c #d0be8e",
"by c #d0c8a3",
"aO c #d0c9ac",
"bW c #d2ccac",
"ej c #d4d2b9",
"dM c #d5ccab",
"cu c #d6b789",
"ar c #d6cab0",
"d4 c #d9d7be",
"cJ c #dccfa5",
"b# c #dcd5b8",
"cI c #ded1b1",
"dr c #e0d6b3",
"c6 c #e5d8b5",
"cj c #eae0bd",
"QtQtQtQtQtQtQtQtQtQtQtQtQtQtQtQtQtQtQtQtQtQtQtQtQtQtQtQtQtQtQtQt",
"QtQtQtQtQtQtQtQtQtQtQtQtQtQtQt.#.a.b.c.d.eQtQtQtQtQtQtQtQtQtQtQt",
"QtQtQtQtQtQtQtQtQtQtQtQtQt.f.g.h.i.j.k.l.m.n.oQtQtQtQtQtQtQtQtQt",
"QtQtQtQtQtQtQtQtQtQtQtQt.p.q.r.s.t.u.v.w.x.y.z.AQtQtQtQtQtQtQtQt",
"QtQtQtQtQtQtQtQtQtQtQt.B.C.D.E.F.G.H.I.J.K.L.M.N.O.P.Q.R.S.TQtQt",
"QtQtQtQtQtQtQtQtQtQtQt.U.V.W.X.Y.Z.0.1.2.3.4.5.6.7.8.9Qt#.##QtQt",
"QtQtQtQtQtQtQtQtQtQt#a#b#c#d#e#f#g#h#i#j#k#l#m#n#o#p#qQtQtQtQtQt",
"QtQtQtQtQtQtQtQtQt#r#s#t#u#v#w#x#y#z#A#B#C#D#E#F#G#H#I#JQtQtQtQt",
"QtQtQtQtQtQtQtQt#K#L#M#N#O#P#Q#R#S#T#U#V#W#X#Y#Z#0#1#2#3#4QtQtQt",
"QtQtQtQtQtQtQt#5#6#7#8#9a.a#aaabacadaeafagahaiajakalamanaoQtQtQt",
"QtQtQtQtQtQtapaqarasatauavawaxayazaAaBaCaDaEaFaGaHaIaJaKaLaMQtQt",
"QtQtQtQtQtQtaNaOaPaQaRaSaTaUaVaWaXaYaZa0a1a2a3a4.Za5a6a7a8a9QtQt",
"QtQtQtQtQtb.b#babbbcbdbebfbfbgbhbibjbkblbmbnbobpbqbrbsbtbubvQtQt",
"QtQtQtQtbwbxbybzbAbBbCbDbEbF#wbGbHbIbJbKbLbMbNbObPbQbRbSbTbUQtQt",
"QtQtQtQtbVbWbXbYbZb0b1b2bFb3b4b5b6b7b8b9c.c#cacbcccdcecfcgQtQtQt",
"QtQtQtchcicjckclcmcncocpcqcrcsctcucvcwcxcyczcAcBcCcDcEcFcGQtQtQt",
"QtQtQtcHcIcJcKcLcMcNcOcPcQcRcSaScTcUcVcWcXcY#RcZc0c1c2c3QtQtQtQt",
"QtQtc4c5c6c7c8c9d.#Pd#dacSdbdcdddedfdgdhdidjdkdldmdndoQtQtQtQtQt",
"QtQtdpdqdrdsdtdudvc8dwdwdxdydzdddAdBdCdDdEdFdGdHdIdJQtQtQtQtQtQt",
"QtQtdKdLdMdNdOdPdQc8dwdRdxdSdTcldUdVdWdXdYdZd0d1d2QtQtQtQtQtQtQt",
"QtQtd3d4d5d6d7d8d9d9dwdRcSdbe.e#eaebecedeeefegehQtQtQtQtQtQtQtQt",
"QtQteiejekelemenaSeoepcrcSeqerbBeseteuevewexeyQtQtQtQtQtQtQtQtQt",
"QtQtezeAeBeCdtdu#PeDeEeEeFeGeHeIb9eJeKeLeMeNQtQtQtQtQtQtQtQtQtQt",
"QtQteOePeQeRdReSeTeUeVeWeX#Pc9eGeYeZe0e1e2QtQtQtQtQtQtQtQtQtQtQt",
"QtQte3e4e5e6e7e8e9f.f#fafbfcfdfefffgfhfiQtQtQtQtQtQtQtQtQtQtQtQt",
"QtQtQtfjfkatflfmfnfofpfqfrfsftfufvfwQtQtQtQtQtQtQtQtQtQtQtQtQtQt",
"QtQtQtfxfyfzfAfBfCfDfEfFfGfHfIfJfKQtQtQtQtQtQtQtQtQtQtQtQtQtQtQt",
"QtQtQtQtfLfMfNfOfPfQfRfSfTfUfVQtQtQtQtQtQtQtQtQtQtQtQtQtQtQtQtQt",
"QtQtQtQtQtQtfWfXfYfZf0f1f2QtQtQtQtQtQtQtQtQtQtQtQtQtQtQtQtQtQtQt",
"QtQtQtQtQtQtQtQtQtQtQtQtQtQtQtQtQtQtQtQtQtQtQtQtQtQtQtQtQtQtQtQt",
"QtQtQtQtQtQtQtQtQtQtQtQtQtQtQtQtQtQtQtQtQtQtQtQtQtQtQtQtQtQtQtQt",
"QtQtQtQtQtQtQtQtQtQtQtQtQtQtQtQtQtQtQtQtQtQtQtQtQtQtQtQtQtQtQtQt"};
